<?xml version="1.0" standalone="no"?>
<!DOCTYPE svg PUBLIC "-//W3C//DTD SVG 20010904//EN"
 "http://www.w3.org/TR/2001/REC-SVG-20010904/DTD/svg10.dtd">
<svg version="1.0" xmlns="http://www.w3.org/2000/svg"
 width="16.000000pt" height="16.000000pt" viewBox="0 0 16.000000 16.000000"
 preserveAspectRatio="xMidYMid meet">
<metadata>
Created by potrace 1.11, written by Peter Selinger 2001-2013
</metadata>
<g transform="translate(0.000000,16.000000) scale(0.005333,-0.005333)"
fill="#000000" stroke="none">
<path d="M1280 2983 c-592 -88 -1081 -527 -1231 -1104 -52 -202 -61 -467 -21
-664 75 -373 283 -701 582 -921 185 -135 379 -221 604 -266 146 -30 383 -32
536 -6 618 106 1097 574 1222 1193 26 126 31 371 12 500 -26 172 -71 312 -155
475 -186 360 -517 635 -900 746 -47 13 -97 27 -110 29 -13 3 -49 10 -79 16
-86 17 -351 19 -460 2z m327 -183 c34 -10 82 -29 105 -41 50 -26 162 -134 153
-149 -3 -5 -1 -10 5 -10 6 0 14 -10 19 -22 6 -18 17 -23 52 -24 101 -5 160
-28 229 -90 40 -36 86 -117 97 -170 18 -89 -8 -213 -59 -278 -27 -34 -64 -68
-72 -67 -3 1 -14 -7 -25 -18 -10 -10 -43 -27 -72 -36 -30 -10 -56 -22 -59 -26
-3 -4 -5 -98 -5 -208 l1 -199 -36 18 c-72 36 -136 64 -155 67 -11 2 -27 6 -35
10 -8 3 -22 7 -30 8 -8 1 -31 5 -51 9 -92 19 -259 12 -369 -15 -47 -12 -161
-59 -170 -69 -3 -4 -12 -9 -20 -13 -8 -4 -25 -14 -37 -23 -27 -19 -24 -48 -28
231 -4 232 -3 216 -12 213 -17 -4 -103 14 -108 23 -4 5 -11 7 -16 4 -5 -4 -9
-1 -9 6 0 7 -3 9 -6 6 -4 -4 -25 3 -48 16 -227 123 -258 425 -59 581 70 56
134 75 234 73 44 -1 79 1 79 6 0 8 48 64 85 99 26 25 151 86 189 92 16 3 31 8
34 11 13 12 142 3 199 -15z m395 -1509 c4 0 6 -50 6 -111 l-2 -110 -486 1
-487 1 0 106 c0 59 4 109 8 112 6 4 936 5 961 1z m0 -390 c4 0 7 -50 7 -109
l-1 -109 -487 1 -486 1 -1 105 c0 58 0 107 2 110 2 4 943 5 966 1z m-5 -390
c9 -1 12 -32 12 -111 l-1 -109 -487 0 -487 0 1 102 c0 56 3 107 7 112 4 6 172
10 475 9 257 -1 473 -2 480 -3z"/>
<path d="M1412 2694 c-68 -16 -97 -29 -146 -66 -38 -29 -106 -124 -106 -149 0
-13 -37 -11 -62 2 -29 15 -135 15 -182 -1 -44 -14 -95 -61 -122 -111 -26 -49
-25 -161 2 -217 11 -23 23 -39 27 -36 4 4 7 0 7 -9 0 -9 7 -17 15 -17 8 0 15
-4 15 -9 0 -12 106 -58 154 -67 21 -3 57 -7 80 -9 23 -1 47 -5 53 -8 8 -5 11
-61 11 -175 0 -92 0 -172 1 -179 1 -7 17 -5 51 8 48 18 95 30 135 33 11 1 25
4 30 8 16 9 244 7 300 -2 83 -15 108 -21 119 -27 5 -4 23 -8 38 -10 l28 -3 0
165 0 165 28 1 c15 0 36 3 47 5 11 2 29 6 40 7 29 5 105 46 105 57 0 6 6 10
14 10 8 0 18 9 21 20 3 11 11 20 17 20 6 0 9 3 5 6 -3 4 0 18 7 33 16 32 14
126 -4 172 -7 19 -31 51 -52 71 -57 54 -122 69 -230 52 -34 -5 -38 -4 -44 23
-4 15 -18 47 -30 69 -13 23 -22 43 -21 45 1 2 1 3 -1 3 -2 -1 -20 15 -40 35
-51 51 -153 92 -235 95 -16 1 -50 -4 -75 -10z"/>
<path d="M1862 1203 c-24 -27 -20 -49 12 -75 43 -34 104 33 66 73 -26 28 -54
28 -78 2z"/>
<path d="M1863 814 c-13 -14 -19 -32 -16 -44 16 -61 103 -53 103 11 0 49 -55
69 -87 33z"/>
<path d="M1885 440 c-4 -6 -10 -8 -13 -6 -4 2 -12 -6 -18 -19 -24 -50 35 -101
77 -66 18 15 21 23 15 55 -4 21 -10 35 -13 32 -3 -3 -14 -1 -24 4 -12 7 -20 7
-24 0z"/>
</g>
</svg>
